<?xml version="1.0" encoding="UTF-8" standalone="no"?><!DOCTYPE svg PUBLIC "-//W3C//DTD SVG 1.1//EN" "http://www.w3.org/Graphics/SVG/1.1/DTD/svg11.dtd"><svg width="100%" height="100%" viewBox="0 0 100 100" version="1.1" xmlns="http://www.w3.org/2000/svg" xmlns:xlink="http://www.w3.org/1999/xlink" xml:space="preserve" xmlns:serif="http://www.serif.com/" style="fill-rule:evenodd;clip-rule:evenodd;stroke-linejoin:round;stroke-miterlimit:2;"><rect id="Artboard1" x="0" y="0" width="99.86" height="99.86" style="fill:none;"/><clipPath id="_clip1"><rect x="0" y="0" width="99.86" height="99.86"/></clipPath><g clip-path="url(#_clip1)"><g><path d="M89.398,13.1l-12.002,12.002c-0.377,0.377 -0.87,0.616 -1.4,0.679c-0.529,0.063 -1.064,-0.053 -1.52,-0.33c-4.721,-2.848 -10.166,-4.269 -15.677,-4.09c-5.511,0.179 -10.853,1.949 -15.379,5.097c-2.785,1.938 -5.202,4.356 -7.14,7.14c-3.144,4.53 -4.913,9.871 -5.093,15.382c-0.18,5.512 1.236,10.958 4.078,15.683c0.275,0.455 0.39,0.988 0.327,1.516c-0.064,0.527 -0.302,1.019 -0.676,1.395l-12.003,12.002c-0.241,0.244 -0.533,0.432 -0.854,0.552c-0.321,0.12 -0.665,0.17 -1.007,0.145c-0.342,-0.025 -0.674,-0.123 -0.975,-0.289c-0.3,-0.165 -0.561,-0.394 -0.765,-0.669c-6.494,-8.927 -9.85,-19.752 -9.545,-30.786c0.306,-11.034 4.256,-21.657 11.234,-30.21c2.131,-2.616 4.523,-5.009 7.14,-7.139c8.552,-6.976 19.173,-10.926 30.206,-11.231c11.032,-0.306 21.856,3.049 30.781,9.541c0.278,0.203 0.508,0.465 0.675,0.765c0.167,0.301 0.266,0.635 0.292,0.978c0.026,0.343 -0.023,0.687 -0.144,1.01c-0.12,0.322 -0.309,0.614 -0.553,0.857Z" style="fill:url(#_Linear2);fill-rule:nonzero;"/><path d="M89.388,86.717l-12.003,-12.003c-0.377,-0.376 -0.87,-0.616 -1.399,-0.679c-0.529,-0.063 -1.065,0.053 -1.52,0.33c-4.452,2.685 -9.552,4.105 -14.751,4.105c-5.199,0 -10.299,-1.42 -14.751,-4.105c-0.455,-0.277 -0.991,-0.393 -1.52,-0.33c-0.529,0.063 -1.022,0.303 -1.399,0.679l-12.003,12.003c-0.251,0.241 -0.447,0.536 -0.572,0.862c-0.125,0.326 -0.177,0.675 -0.152,1.024c0.025,0.348 0.126,0.686 0.297,0.991c0.17,0.305 0.406,0.568 0.689,0.771c8.544,6.217 18.838,9.565 29.403,9.565c10.566,0 20.859,-3.348 29.403,-9.565c0.285,-0.202 0.521,-0.464 0.694,-0.768c0.171,-0.304 0.274,-0.642 0.301,-0.991c0.026,-0.348 -0.024,-0.698 -0.148,-1.024c-0.124,-0.327 -0.318,-0.622 -0.569,-0.865Z" style="fill:#1f0256;fill-rule:nonzero;"/><path d="M59.737,64.189c7.886,0 14.279,-6.393 14.279,-14.279c0,-7.886 -6.393,-14.279 -14.279,-14.279c-7.886,0 -14.279,6.393 -14.279,14.279c-0,7.886 6.393,14.279 14.279,14.279Z" style="fill:#1f0256;fill-rule:nonzero;"/></g></g><defs><linearGradient id="_Linear2" x1="0" y1="0" x2="1" y2="0" gradientUnits="userSpaceOnUse" gradientTransform="matrix(-101.223,101.23,-101.23,-101.223,78.1177,-7.39873)"><stop offset="0" style="stop-color:#17ccfc;stop-opacity:1"/><stop offset="0.5" style="stop-color:#5d31ff;stop-opacity:1"/><stop offset="1" style="stop-color:#f35aff;stop-opacity:1"/></linearGradient></defs></svg>