<?xml version="1.0" encoding="UTF-8" standalone="no"?><!DOCTYPE svg PUBLIC "-//W3C//DTD SVG 1.1//EN" "http://www.w3.org/Graphics/SVG/1.1/DTD/svg11.dtd"><svg width="100%" height="100%" viewBox="0 0 3334 3334" version="1.1" xmlns="http://www.w3.org/2000/svg" xmlns:xlink="http://www.w3.org/1999/xlink" xml:space="preserve" xmlns:serif="http://www.serif.com/" style="fill-rule:evenodd;clip-rule:evenodd;stroke-linejoin:round;stroke-miterlimit:2;"><rect id="Artboard1" x="0" y="0" width="3333.33" height="3333.33" style="fill:none;"/><g id="Artboard11" serif:id="Artboard1"><path d="M1941.11,1270.83c-301.667,-111.944 -466.111,-198.055 -466.111,-334.583c0,-115.417 94.861,-181.25 264.028,-181.25c309.305,0 627.083,119.167 845.833,226.528l123.611,-763.056c-173.472,-83.055 -528.333,-218.472 -1018.89,-218.472c-346.944,0 -635.555,90.833 -841.805,260c-214.445,177.083 -325.972,433.333 -325.972,742.5c-0,560.972 342.638,800 899.444,1002.64c359.028,127.778 478.472,218.611 478.472,358.75c0,136.111 -116.666,214.583 -326.944,214.583c-260.417,0 -689.584,-127.916 -970.834,-292.916l-125,771.527c241.806,135.973 687.639,276.25 1150,276.25c366.806,0 672.639,-86.666 878.889,-251.805c231.111,-181.25 350.695,-449.445 350.695,-796.111c-0,-573.334 -350.556,-812.639 -915.834,-1014.58l0.417,0Z" style="fill:#635bff;fill-rule:nonzero;"/></g></svg>